<mxfile host="app.diagrams.net" modified="2021-12-28T06:32:35.214Z" agent="5.0 (Macintosh; Intel Mac OS X 10_15_7) AppleWebKit/537.36 (KHTML, like Gecko) Chrome/96.0.4664.110 Safari/537.36" etag="7ugzRHbRRrAaK8h8OIG0" version="16.1.0" type="github">
  <diagram id="do304IY1a0Jdrp2tHZYl" name="Page-1">
    <mxGraphModel dx="1590" dy="1658" grid="1" gridSize="10" guides="1" tooltips="1" connect="1" arrows="1" fold="1" page="1" pageScale="1" pageWidth="827" pageHeight="1169" math="0" shadow="0">
      <root>
        <mxCell id="0" />
        <mxCell id="1" parent="0" />
        <mxCell id="WX32Rwe4SgZLRRwjqC4w-2" value="基于springboot的选课管理系统" style="rounded=0;whiteSpace=wrap;html=1;" parent="1" vertex="1">
          <mxGeometry x="-260" y="30" width="120" height="60" as="geometry" />
        </mxCell>
        <mxCell id="WX32Rwe4SgZLRRwjqC4w-28" style="edgeStyle=none;rounded=0;orthogonalLoop=1;jettySize=auto;html=1;exitX=0.5;exitY=1;exitDx=0;exitDy=0;entryX=0.5;entryY=0;entryDx=0;entryDy=0;endArrow=none;endFill=0;" parent="1" source="WX32Rwe4SgZLRRwjqC4w-4" target="WX32Rwe4SgZLRRwjqC4w-6" edge="1">
          <mxGeometry relative="1" as="geometry" />
        </mxCell>
        <mxCell id="WX32Rwe4SgZLRRwjqC4w-4" value="用户模块" style="rounded=0;whiteSpace=wrap;html=1;" parent="1" vertex="1">
          <mxGeometry x="-620" y="160" width="120" height="60" as="geometry" />
        </mxCell>
        <mxCell id="WX32Rwe4SgZLRRwjqC4w-27" value="" style="edgeStyle=none;rounded=0;orthogonalLoop=1;jettySize=auto;html=1;endArrow=none;endFill=0;exitX=0.5;exitY=0;exitDx=0;exitDy=0;" parent="1" source="WX32Rwe4SgZLRRwjqC4w-5" edge="1">
          <mxGeometry relative="1" as="geometry">
            <mxPoint x="-210" y="90" as="targetPoint" />
          </mxGeometry>
        </mxCell>
        <mxCell id="WX32Rwe4SgZLRRwjqC4w-5" value="选课模块" style="rounded=0;whiteSpace=wrap;html=1;" parent="1" vertex="1">
          <mxGeometry x="120" y="160" width="120" height="60" as="geometry" />
        </mxCell>
        <mxCell id="WX32Rwe4SgZLRRwjqC4w-6" value="登陆验证" style="rounded=0;whiteSpace=wrap;html=1;" parent="1" vertex="1">
          <mxGeometry x="-700" y="260" width="120" height="60" as="geometry" />
        </mxCell>
        <mxCell id="WX32Rwe4SgZLRRwjqC4w-29" style="edgeStyle=none;rounded=0;orthogonalLoop=1;jettySize=auto;html=1;exitX=0.5;exitY=0;exitDx=0;exitDy=0;entryX=0.5;entryY=1;entryDx=0;entryDy=0;endArrow=none;endFill=0;" parent="1" source="WX32Rwe4SgZLRRwjqC4w-7" target="WX32Rwe4SgZLRRwjqC4w-4" edge="1">
          <mxGeometry relative="1" as="geometry" />
        </mxCell>
        <mxCell id="WX32Rwe4SgZLRRwjqC4w-7" value="注册" style="rounded=0;whiteSpace=wrap;html=1;" parent="1" vertex="1">
          <mxGeometry x="-533" y="260" width="120" height="60" as="geometry" />
        </mxCell>
        <mxCell id="WX32Rwe4SgZLRRwjqC4w-31" style="edgeStyle=none;rounded=0;orthogonalLoop=1;jettySize=auto;html=1;exitX=0.5;exitY=0;exitDx=0;exitDy=0;entryX=0.5;entryY=1;entryDx=0;entryDy=0;endArrow=none;endFill=0;" parent="1" source="WX32Rwe4SgZLRRwjqC4w-8" target="WX32Rwe4SgZLRRwjqC4w-5" edge="1">
          <mxGeometry relative="1" as="geometry" />
        </mxCell>
        <mxCell id="WX32Rwe4SgZLRRwjqC4w-8" value="培养计划" style="rounded=0;whiteSpace=wrap;html=1;" parent="1" vertex="1">
          <mxGeometry x="-180" y="260" width="120" height="60" as="geometry" />
        </mxCell>
        <mxCell id="WX32Rwe4SgZLRRwjqC4w-32" style="edgeStyle=none;rounded=0;orthogonalLoop=1;jettySize=auto;html=1;exitX=0.5;exitY=0;exitDx=0;exitDy=0;endArrow=none;endFill=0;" parent="1" source="WX32Rwe4SgZLRRwjqC4w-11" edge="1">
          <mxGeometry relative="1" as="geometry">
            <mxPoint x="180" y="220" as="targetPoint" />
          </mxGeometry>
        </mxCell>
        <mxCell id="WX32Rwe4SgZLRRwjqC4w-11" value="课程" style="rounded=0;whiteSpace=wrap;html=1;" parent="1" vertex="1">
          <mxGeometry x="354" y="260" width="120" height="60" as="geometry" />
        </mxCell>
        <mxCell id="WX32Rwe4SgZLRRwjqC4w-33" style="edgeStyle=none;rounded=0;orthogonalLoop=1;jettySize=auto;html=1;exitX=0.5;exitY=0;exitDx=0;exitDy=0;entryX=0.5;entryY=1;entryDx=0;entryDy=0;endArrow=none;endFill=0;" parent="1" source="WX32Rwe4SgZLRRwjqC4w-12" target="WX32Rwe4SgZLRRwjqC4w-8" edge="1">
          <mxGeometry relative="1" as="geometry" />
        </mxCell>
        <mxCell id="WX32Rwe4SgZLRRwjqC4w-12" value="添加计划" style="rounded=0;whiteSpace=wrap;html=1;" parent="1" vertex="1">
          <mxGeometry x="-390" y="370" width="120" height="60" as="geometry" />
        </mxCell>
        <mxCell id="WX32Rwe4SgZLRRwjqC4w-34" style="edgeStyle=none;rounded=0;orthogonalLoop=1;jettySize=auto;html=1;exitX=0.5;exitY=0;exitDx=0;exitDy=0;endArrow=none;endFill=0;" parent="1" source="WX32Rwe4SgZLRRwjqC4w-14" edge="1">
          <mxGeometry relative="1" as="geometry">
            <mxPoint x="-120" y="320" as="targetPoint" />
          </mxGeometry>
        </mxCell>
        <mxCell id="WX32Rwe4SgZLRRwjqC4w-14" value="修改计划" style="rounded=0;whiteSpace=wrap;html=1;" parent="1" vertex="1">
          <mxGeometry x="-250" y="370" width="120" height="60" as="geometry" />
        </mxCell>
        <mxCell id="WX32Rwe4SgZLRRwjqC4w-35" style="edgeStyle=none;rounded=0;orthogonalLoop=1;jettySize=auto;html=1;exitX=0.5;exitY=0;exitDx=0;exitDy=0;endArrow=none;endFill=0;" parent="1" source="WX32Rwe4SgZLRRwjqC4w-15" edge="1">
          <mxGeometry relative="1" as="geometry">
            <mxPoint x="-120" y="320" as="targetPoint" />
          </mxGeometry>
        </mxCell>
        <mxCell id="WX32Rwe4SgZLRRwjqC4w-15" value="删除计划" style="rounded=0;whiteSpace=wrap;html=1;" parent="1" vertex="1">
          <mxGeometry x="-110" y="370" width="120" height="60" as="geometry" />
        </mxCell>
        <mxCell id="WX32Rwe4SgZLRRwjqC4w-36" style="edgeStyle=none;rounded=0;orthogonalLoop=1;jettySize=auto;html=1;exitX=0.5;exitY=0;exitDx=0;exitDy=0;entryX=0.5;entryY=1;entryDx=0;entryDy=0;endArrow=none;endFill=0;" parent="1" source="WX32Rwe4SgZLRRwjqC4w-16" target="WX32Rwe4SgZLRRwjqC4w-8" edge="1">
          <mxGeometry relative="1" as="geometry" />
        </mxCell>
        <mxCell id="WX32Rwe4SgZLRRwjqC4w-16" value="导出计划（生成固定格式的文件）" style="rounded=0;whiteSpace=wrap;html=1;" parent="1" vertex="1">
          <mxGeometry x="30" y="370" width="120" height="60" as="geometry" />
        </mxCell>
        <mxCell id="WX32Rwe4SgZLRRwjqC4w-38" style="edgeStyle=none;rounded=0;orthogonalLoop=1;jettySize=auto;html=1;exitX=0.5;exitY=0;exitDx=0;exitDy=0;entryX=0.5;entryY=1;entryDx=0;entryDy=0;endArrow=none;endFill=0;" parent="1" source="WX32Rwe4SgZLRRwjqC4w-17" target="WX32Rwe4SgZLRRwjqC4w-11" edge="1">
          <mxGeometry relative="1" as="geometry" />
        </mxCell>
        <mxCell id="WX32Rwe4SgZLRRwjqC4w-17" value="添加课程" style="rounded=0;whiteSpace=wrap;html=1;" parent="1" vertex="1">
          <mxGeometry x="210" y="370" width="120" height="60" as="geometry" />
        </mxCell>
        <mxCell id="WX32Rwe4SgZLRRwjqC4w-37" style="edgeStyle=none;rounded=0;orthogonalLoop=1;jettySize=auto;html=1;exitX=0.5;exitY=0;exitDx=0;exitDy=0;entryX=0.5;entryY=1;entryDx=0;entryDy=0;endArrow=none;endFill=0;" parent="1" source="WX32Rwe4SgZLRRwjqC4w-18" target="WX32Rwe4SgZLRRwjqC4w-11" edge="1">
          <mxGeometry relative="1" as="geometry" />
        </mxCell>
        <mxCell id="WX32Rwe4SgZLRRwjqC4w-18" value="修改课程" style="rounded=0;whiteSpace=wrap;html=1;" parent="1" vertex="1">
          <mxGeometry x="354" y="370" width="120" height="60" as="geometry" />
        </mxCell>
        <mxCell id="WX32Rwe4SgZLRRwjqC4w-39" style="edgeStyle=none;rounded=0;orthogonalLoop=1;jettySize=auto;html=1;exitX=0.5;exitY=0;exitDx=0;exitDy=0;entryX=0.5;entryY=1;entryDx=0;entryDy=0;endArrow=none;endFill=0;" parent="1" source="WX32Rwe4SgZLRRwjqC4w-19" target="WX32Rwe4SgZLRRwjqC4w-11" edge="1">
          <mxGeometry relative="1" as="geometry" />
        </mxCell>
        <mxCell id="WX32Rwe4SgZLRRwjqC4w-19" value="删除课程" style="rounded=0;whiteSpace=wrap;html=1;" parent="1" vertex="1">
          <mxGeometry x="500" y="370" width="120" height="60" as="geometry" />
        </mxCell>
        <mxCell id="WX32Rwe4SgZLRRwjqC4w-24" value="" style="endArrow=none;html=1;rounded=0;exitX=0.5;exitY=0;exitDx=0;exitDy=0;entryX=0.5;entryY=1;entryDx=0;entryDy=0;" parent="1" source="WX32Rwe4SgZLRRwjqC4w-4" target="WX32Rwe4SgZLRRwjqC4w-2" edge="1">
          <mxGeometry width="50" height="50" relative="1" as="geometry">
            <mxPoint x="-270" y="320" as="sourcePoint" />
            <mxPoint x="-280" y="130" as="targetPoint" />
          </mxGeometry>
        </mxCell>
        <mxCell id="WX32Rwe4SgZLRRwjqC4w-40" value="&lt;h1&gt;技术栈：&lt;/h1&gt;&lt;p&gt;spring，springmvc，springboot，mybatis&lt;/p&gt;" style="text;html=1;strokeColor=none;fillColor=none;spacing=5;spacingTop=-20;whiteSpace=wrap;overflow=hidden;rounded=0;" parent="1" vertex="1">
          <mxGeometry x="60" width="190" height="120" as="geometry" />
        </mxCell>
      </root>
    </mxGraphModel>
  </diagram>
</mxfile>
